<svg xmlns="http://www.w3.org/2000/svg" viewBox="0 0 120 120" width="120" height="120" role="img">
  <title>DeployFlow Icon</title>
  <desc>DeployFlow cloud deployment icon with arrow</desc>
  <defs>
    <linearGradient id="bg" x1="0%" y1="0%" x2="100%" y2="100%">
      <stop offset="0%" stop-color="#2563EB"/>
      <stop offset="100%" stop-color="#06B6D4"/>
    </linearGradient>
    <linearGradient id="arrow" x1="0%" y1="0%" x2="100%" y2="0%">
      <stop offset="0%" stop-color="#2563EB"/>
      <stop offset="100%" stop-color="#06B6D4"/>
    </linearGradient>
  </defs>
  <rect width="120" height="120" rx="26" fill="url(#bg)"/>
  <g transform="translate(60, 62)">
    <path d="M-28 8 Q-28 20 -16 20 L20 20 Q32 20 32 8 Q32 0 24 -2 Q26 -6 24 -12 Q20 -22 8 -22 Q0 -22 -4 -16 Q-10 -26 -22 -24 Q-34 -22 -32 -10 Q-40 -8 -40 0 Q-40 8 -28 8 Z" fill="white" opacity="0.95"/>
    <rect x="-2" y="-11" width="4" height="11" rx="2" fill="url(#arrow)"/>
    <path d="M-7 1 L2 12 L11 1" fill="none" stroke="#1D4ED8" stroke-width="4" stroke-linecap="round" stroke-linejoin="round"/>
  </g>
</svg>
